<svg data-v-423bf9ae="" xmlns="http://www.w3.org/2000/svg" viewBox="0 0 386 90" class="iconLeft"><!----><!----><!----><g data-v-423bf9ae="" id="ff82a4c0-be52-4f73-83f2-5b84cff34e37" fill="#000000" transform="matrix(4.531722132721215,0,0,4.531722132721215,163.78333795731763,-2.719032735807886)"><path d="M1.15 14.35L6.10 14.35C7.55 14.35 8.62 13.12 8.62 11.55C8.62 9.88 7.36 9.28 6.51 9.27L6.51 9.18C7.41 9.13 8.26 8.57 8.26 7.08C8.26 5.57 7.28 4.58 5.67 4.58L1.15 4.58ZM3.00 10.16L5.57 10.16C6.27 10.16 6.69 10.56 6.69 11.24L6.69 11.72C6.69 12.40 6.27 12.78 5.57 12.78L3.00 12.78ZM3.00 6.15L5.28 6.15C5.95 6.15 6.34 6.52 6.34 7.18L6.34 7.62C6.34 8.26 5.95 8.65 5.28 8.65L3.00 8.65ZM13.40 10.91L12.89 12.75L12.81 12.75L12.33 10.91L11.06 7.04L9.28 7.04L11.90 14.70L11.56 15.72L10.25 15.72L10.25 17.15L11.33 17.15C12.53 17.15 13.05 16.70 13.41 15.65L16.35 7.04L14.67 7.04ZM19.81 14.35L21.10 14.35L21.10 12.92L19.71 12.92L19.71 8.47L21.21 8.47L21.21 7.04L19.71 7.04L19.71 5.04L18.10 5.04L18.10 6.29C18.10 6.79 17.93 7.04 17.40 7.04L16.84 7.04L16.84 8.47L17.92 8.47L17.92 12.49C17.92 13.68 18.58 14.35 19.81 14.35ZM25.66 14.52C27.02 14.52 28.08 14 28.69 13.17L27.72 12.10C27.27 12.67 26.74 13.09 25.86 13.09C24.68 13.09 24.08 12.38 24.08 11.33L24.08 11.14L28.94 11.14L28.94 10.56C28.94 8.55 27.89 6.87 25.61 6.87C23.46 6.87 22.22 8.37 22.22 10.68C22.22 13.02 23.51 14.52 25.66 14.52ZM25.63 8.22C26.56 8.22 27.08 8.90 27.08 9.91L27.08 10.04L24.08 10.04L24.08 9.93C24.08 8.92 24.70 8.22 25.63 8.22ZM30.52 14.35L32.31 14.35L32.31 13.13L32.37 13.13C32.65 13.96 33.42 14.52 34.38 14.52C36.23 14.52 37.25 13.13 37.25 10.68C37.25 8.25 36.23 6.87 34.38 6.87C33.42 6.87 32.63 7.41 32.37 8.25L32.31 8.25L32.31 3.99L30.52 3.99ZM33.81 13.03C32.96 13.03 32.31 12.60 32.31 11.84L32.31 9.52C32.31 8.81 32.96 8.34 33.81 8.34C34.73 8.34 35.38 9.03 35.38 10.07L35.38 11.33C35.38 12.36 34.73 13.03 33.81 13.03ZM39.82 5.98C40.54 5.98 40.87 5.60 40.87 5.08L40.87 4.80C40.87 4.28 40.54 3.91 39.82 3.91C39.07 3.91 38.77 4.28 38.77 4.80L38.77 5.08C38.77 5.60 39.07 5.98 39.82 5.98ZM38.92 14.35L40.71 14.35L40.71 7.04L38.92 7.04ZM44.58 14.35L44.58 9.52C44.58 8.74 45.29 8.34 46.03 8.34C46.89 8.34 47.24 8.88 47.24 9.91L47.24 14.35L49.03 14.35L49.03 9.73C49.03 7.91 48.19 6.87 46.69 6.87C45.56 6.87 44.94 7.48 44.65 8.26L44.58 8.26L44.58 7.04L42.78 7.04L42.78 14.35Z"></path></g><defs data-v-423bf9ae=""><linearGradient data-v-423bf9ae="" gradientTransform="rotate(25)" id="7fab82ee-750f-446f-8c67-cf44b81dfbe3" x1="0%" y1="0%" x2="100%" y2="0%"><stop data-v-423bf9ae="" offset="0%" style="stop-color: rgb(57, 94, 202); stop-opacity: 1;"></stop><stop data-v-423bf9ae="" offset="100%" style="stop-color: rgb(132, 139, 216); stop-opacity: 1;"></stop></linearGradient></defs><g data-v-423bf9ae="" id="e33c398a-bb02-4eb0-b2a4-2b6f60587e23" transform="matrix(1.5624458196010098,0,0,1.5624458196010098,-2.8399688773387908,-25.22298695318274)" stroke="none" fill="url(#7fab82ee-750f-446f-8c67-cf44b81dfbe3)"><path d="M87.962 53.238c-.119-10.771-8.874-19.723-19.672-19.723a19.587 19.587 0 0 0-10.583 3.089C54.243 24.922 43.434 16.398 30.63 16.398c-15.598 0-28.243 13.203-28.243 28.801C2.387 60.799 15.032 74 30.63 74H87.658c5.571 0 10.089-4.816 10.089-10.388 0-5.469-4.354-10.212-9.785-10.374zm-45.354-8.146c-.335.745-1.076.908-1.892.908H37v10.178C37 57.324 34.97 58 33.825 58h-6.639C26.039 58 24 57.324 24 56.178V46h-3.661c-.816 0-1.558-.163-1.893-.908-.334-.748-.199-1.302.343-1.914l10.188-11.455c.787-.884 2.314-.884 3.101 0l10.188 11.455c.542.612.677 1.166.342 1.914z"></path></g><!----></svg>