<svg xmlns="http://www.w3.org/2000/svg" viewBox="0 0 112 112">
  <g transform="matrix(1.1111112806532117,0,0,1.1111112806532117,0.44443596733941604,0.4444274902330818)" fill="#19CEDA">
    <path d="M80.652 0H19.348C8.662 0 0 8.662 0 19.348v61.306c0 4.393 1.466 8.44 3.934 11.688L21.361 73.18l-.831-.832 2.769-4.059-1.186-1.186a65.06 65.06 0 0 1 3.752-12.804l-2.473-1.363-14.018 5.16a1.737 1.737 0 0 1-.356.09 1.826 1.826 0 0 1-1.517-.515c-.351-.353-.853-1.136-.269-2.437.25-.558.72-1.278 1.438-2.205 1.807-2.331 5.19-5.98 10.057-10.848 2.712-2.712 5.528-4.597 8.369-5.603 2.474-.876 4.984-1.098 7.46-.658.716.127 1.402.306 2.056.521a76.198 76.198 0 0 1 3.121-3.517 67.062 67.062 0 0 1 1.732-1.765 35.767 35.767 0 0 1 10.428-7.056c3.229-1.435 6.828-2.499 10.931-3.059a51.124 51.124 0 0 1 3.181-.316 48.9 48.9 0 0 1 3.404-.093c1.178.012 2.394.063 3.673.177l.479.044c.162.015.33.037.494.057l.993.118 1.03.157c.081.011.164.026.249.042l5.141-4.626a.818.818 0 0 1 1.157.062.825.825 0 0 1 0 1.097L78 22.904c.016.084.029.168.041.247l.158 1.032.117.992c.02.164.041.334.057.494l.045.48c.113 1.279.164 2.496.177 3.673a47.633 47.633 0 0 1-.094 3.404 52.627 52.627 0 0 1-.315 3.181c-.56 4.104-1.623 7.701-3.06 10.93a35.723 35.723 0 0 1-7.056 10.429 64.112 64.112 0 0 1-1.766 1.731 76.792 76.792 0 0 1-3.517 3.121c.217.653.396 1.34.522 2.056.438 2.477.217 4.987-.658 7.461-1.006 2.842-2.892 5.656-5.604 8.369-4.866 4.867-8.516 8.25-10.847 10.057-.927.719-1.648 1.188-2.206 1.438-1.3.584-2.085.082-2.437-.269a1.821 1.821 0 0 1-.513-1.519 1.73 1.73 0 0 1 .088-.354l5.162-14.019-1.364-2.474a65.079 65.079 0 0 1-12.804 3.751l-1.186-1.187-4.057 2.772-1.21-1.21L6.194 94.836A19.275 19.275 0 0 0 19.348 100h61.304C91.338 100 100 91.338 100 80.652V19.348C100 8.662 91.338 0 80.652 0zM23.049 74.867l-.803-.805-16.131 17.74 16.934-16.935zm1.743 1.742l-.859-.858L9.172 90.512l15.62-13.903zm38.493-45.162a4.504 4.504 0 1 1-.001 9.007 4.504 4.504 0 0 1 .001-9.007zm-11.942 11.94a4.503 4.503 0 1 1 0 9.006 4.503 4.503 0 0 1 0-9.006z"/>
  </g>
</svg>