<svg xmlns="http://www.w3.org/2000/svg" viewBox="0 0 320.87391183962563 60">
  <g fill="#fff" transform="matrix(5.04201656428025,0,0,5.04201656428025,-3.1764671838138554,-16.336133954771007)">
    <path d="M10.51 8.46C10.51 5.75 8.53 3.59 5.57 3.59C2.60 3.59 0.63 5.75 0.63 8.46C0.63 11.00 2.35 13.05 5.00 13.31L9.61 15.14L10.16 13.77L7.53 12.99C9.38 12.26 10.51 10.51 10.51 8.46ZM2.17 8.46C2.17 6.53 3.49 4.91 5.57 4.91C7.66 4.91 8.97 6.53 8.97 8.46C8.97 10.37 7.66 12.02 5.57 12.02C3.49 12.02 2.17 10.37 2.17 8.46ZM14.89 13.33C16.33 13.33 17.85 12.67 17.85 10.31L17.85 6.53L16.44 6.53L16.44 10.32C16.44 11.43 15.90 12.12 14.89 12.12C13.88 12.12 13.34 11.43 13.34 10.32L13.34 6.53L11.93 6.53L11.93 10.31C11.93 12.67 13.45 13.33 14.89 13.33ZM20.37 5.26C20.88 5.26 21.29 4.86 21.29 4.36C21.29 3.86 20.88 3.46 20.37 3.46C19.88 3.46 19.47 3.86 19.47 4.36C19.47 4.86 19.88 5.26 20.37 5.26ZM19.70 13.15L21.09 13.15L21.09 6.53L19.70 6.53ZM26.13 13.34C27.05 13.34 27.80 13.07 28.41 12.60L27.59 11.58C27.23 11.93 26.72 12.13 26.16 12.13C24.86 12.13 24.09 11.14 24.09 9.84C24.09 8.55 24.86 7.57 26.16 7.57C26.72 7.57 27.23 7.77 27.59 8.12L28.41 7.10C27.80 6.64 27.05 6.36 26.13 6.36C24.08 6.36 22.65 7.89 22.65 9.84C22.65 11.81 24.08 13.34 26.13 13.34ZM35.77 13.15L32.21 9.54L35.36 6.53L33.51 6.53L30.93 9.04L30.93 3.24L29.52 3.24L29.52 13.15L30.93 13.15L30.93 10.06L33.89 13.15ZM35.90 12.22C36.39 12.88 37.39 13.34 38.63 13.34C40.26 13.34 41.27 12.54 41.27 11.35C41.27 9.00 37.77 9.79 37.77 8.36C37.77 7.86 38.15 7.53 38.92 7.51C39.40 7.50 39.96 7.73 40.35 8.11L41.13 7.22C40.69 6.75 39.84 6.36 38.86 6.36C37.29 6.36 36.33 7.19 36.33 8.41C36.33 10.82 39.77 10.09 39.77 11.38C39.77 11.87 39.36 12.21 38.54 12.21C37.89 12.21 37.29 11.97 36.81 11.35ZM48.91 9.70C48.91 7.73 47.59 6.36 45.66 6.36C43.68 6.36 42.25 7.89 42.25 9.84C42.25 11.80 43.66 13.31 45.84 13.31C46.97 13.31 47.94 12.92 48.53 12.25L47.56 11.46C47.13 11.94 46.56 12.19 45.82 12.19C44.58 12.19 43.84 11.33 43.74 10.15L48.91 10.15ZM45.66 7.50C46.70 7.50 47.37 8.12 47.51 9.17L43.79 9.17C44.00 8.17 44.68 7.50 45.66 7.50ZM53.77 6.36C52.84 6.36 52.14 6.75 51.73 7.32L51.55 6.53L50.31 6.53L50.31 13.15L51.73 13.15L51.73 9.11C51.84 7.95 52.63 7.57 53.38 7.57C54.40 7.57 54.83 8.30 54.83 9.38L54.83 13.15L56.25 13.15L56.25 9.06C56.25 7 54.92 6.36 53.77 6.36ZM62.85 3.24L62.85 7.32C62.34 6.72 61.61 6.36 60.67 6.36C58.95 6.36 57.57 7.69 57.57 9.84C57.57 12.00 58.95 13.31 60.67 13.31C61.66 13.31 62.43 12.91 62.94 12.25L63.12 13.15L64.27 13.15L64.27 3.24ZM61.00 12.12C59.81 12.12 59.02 11.14 59.02 9.84C59.02 8.55 59.81 7.55 61.00 7.55C62.24 7.55 63.04 8.55 63.04 9.84C63.04 11.14 62.24 12.12 61.00 12.12Z"></path>
  </g>
</svg>