<svg data-v-423bf9ae="" xmlns="http://www.w3.org/2000/svg" viewBox="0 0 99.32988159351864 60" class="icon"><!----><!----><!----><!----><g data-v-423bf9ae="" id="3ffc102f-5e9d-4b6a-b221-2871a3a06661" transform="matrix(1.0416305464006732,0,0,1.0416305464006732,-2.486371200815448,-17.080658446897218)" stroke="none" fill="black"><path d="M87.962 53.238c-.119-10.771-8.874-19.723-19.672-19.723a19.587 19.587 0 0 0-10.583 3.089C54.243 24.922 43.434 16.398 30.63 16.398c-15.598 0-28.243 13.203-28.243 28.801C2.387 60.799 15.032 74 30.63 74H87.658c5.571 0 10.089-4.816 10.089-10.388 0-5.469-4.354-10.212-9.785-10.374zm-45.354-8.146c-.335.745-1.076.908-1.892.908H37v10.178C37 57.324 34.97 58 33.825 58h-6.639C26.039 58 24 57.324 24 56.178V46h-3.661c-.816 0-1.558-.163-1.893-.908-.334-.748-.199-1.302.343-1.914l10.188-11.455c.787-.884 2.314-.884 3.101 0l10.188 11.455c.542.612.677 1.166.342 1.914z"></path></g><!----></svg>